# Blender v2.91.2 OBJ File: ''
# www.blender.org
mtllib acorn.mtl
g model.004
v 0.125000 -0.437500 0.125000
v 0.187500 -0.437500 0.125000
v 0.187500 -0.437500 0.187500
v 0.125000 -0.437500 0.187500
v 0.187500 -0.375000 0.125000
v 0.187500 -0.375000 0.187500
v 0.125000 -0.375000 0.187500
v 0.125000 -0.375000 0.125000
v 0.125000 -0.312500 0.187500
v 0.187500 -0.312500 0.187500
v 0.187500 -0.312500 0.125000
v 0.125000 -0.312500 0.125000
v 0.187500 -0.500000 0.125000
v 0.187500 -0.500000 0.062500
v 0.187500 -0.437500 0.062500
v 0.125000 -0.500000 0.062500
v 0.125000 -0.500000 0.125000
v 0.125000 -0.437500 0.062500
v 0.250000 -0.437500 0.062500
v 0.250000 -0.437500 0.125000
v 0.250000 -0.375000 0.062500
v 0.250000 -0.375000 0.125000
v 0.250000 -0.312500 0.125000
v 0.250000 -0.312500 0.062500
v 0.187500 -0.312500 0.062500
v 0.125000 -0.250000 0.125000
v 0.187500 -0.250000 0.125000
v 0.187500 -0.250000 0.062500
v 0.125000 -0.250000 0.062500
v 0.125000 -0.312500 0.062500
v 0.250000 -0.500000 0.062500
v 0.250000 -0.500000 0.000000
v 0.250000 -0.437500 0.000000
v 0.250000 -0.375000 0.000000
v 0.250000 -0.312500 0.000000
v 0.250000 -0.250000 0.062500
v 0.250000 -0.250000 0.000000
v 0.187500 -0.250000 0.000000
v 0.125000 -0.187500 0.062500
v 0.187500 -0.187500 0.062500
v 0.187500 -0.187500 0.000000
v 0.125000 -0.187500 0.000000
v 0.125000 -0.250000 0.000000
v 0.250000 -0.500000 -0.062500
v 0.250000 -0.437500 -0.062500
v 0.187500 -0.500000 -0.062500
v 0.187500 -0.437500 -0.062500
v 0.250000 -0.375000 -0.062500
v 0.250000 -0.250000 -0.062500
v 0.187500 -0.250000 -0.062500
v 0.250000 -0.312500 -0.062500
v 0.187500 -0.312500 -0.062500
v 0.187500 -0.187500 -0.062500
v 0.125000 -0.187500 -0.062500
v 0.125000 -0.250000 -0.062500
v 0.187500 -0.500000 -0.125000
v 0.187500 -0.437500 -0.125000
v 0.125000 -0.500000 -0.125000
v 0.125000 -0.500000 -0.062500
v 0.125000 -0.437500 -0.062500
v 0.125000 -0.437500 -0.125000
v 0.250000 -0.437500 -0.125000
v 0.250000 -0.375000 -0.125000
v 0.187500 -0.375000 -0.125000
v 0.250000 -0.312500 -0.125000
v 0.187500 -0.312500 -0.125000
v 0.187500 -0.250000 -0.125000
v 0.125000 -0.250000 -0.125000
v 0.125000 -0.312500 -0.125000
v 0.125000 -0.312500 -0.062500
v 0.125000 -0.437500 -0.187500
v 0.187500 -0.437500 -0.187500
v 0.187500 -0.375000 -0.187500
v 0.125000 -0.375000 -0.125000
v 0.125000 -0.375000 -0.187500
v 0.187500 -0.312500 -0.187500
v 0.125000 -0.312500 -0.187500
v -0.062500 -0.437500 0.062500
v 0.000000 -0.437500 0.062500
v 0.000000 -0.437500 0.125000
v -0.062500 -0.437500 0.125000
v -0.062500 -0.375000 0.125000
v -0.062500 -0.375000 0.062500
v 0.000000 -0.375000 0.125000
v 0.062500 -0.437500 0.062500
v 0.062500 -0.437500 0.125000
v 0.062500 -0.375000 0.125000
v -0.062500 -0.312500 0.125000
v 0.000000 -0.312500 0.125000
v 0.000000 -0.312500 0.062500
v -0.062500 -0.312500 0.062500
v 0.062500 -0.312500 0.125000
v 0.062500 -0.312500 0.062500
v -0.062500 -0.500000 0.000000
v -0.062500 -0.500000 0.062500
v -0.062500 -0.437500 0.000000
v 0.000000 -0.500000 0.062500
v 0.062500 -0.500000 0.062500
v -0.125000 -0.437500 0.000000
v -0.125000 -0.437500 0.062500
v -0.125000 -0.375000 0.062500
v -0.125000 -0.375000 0.000000
v -0.125000 -0.312500 0.062500
v -0.062500 -0.312500 0.000000
v -0.125000 -0.312500 0.000000
v -0.062500 -0.250000 0.062500
v 0.000000 -0.250000 0.062500
v 0.000000 -0.250000 0.000000
v -0.062500 -0.250000 0.000000
v 0.062500 -0.250000 0.062500
v 0.062500 -0.250000 0.000000
v -0.062500 -0.500000 -0.062500
v -0.062500 -0.437500 -0.062500
v 0.000000 -0.500000 -0.062500
v 0.000000 -0.437500 -0.062500
v 0.062500 -0.500000 -0.062500
v 0.062500 -0.437500 -0.062500
v -0.125000 -0.437500 -0.062500
v -0.125000 -0.375000 -0.062500
v -0.062500 -0.375000 -0.062500
v -0.062500 -0.312500 -0.062500
v -0.125000 -0.312500 -0.062500
v 0.312500 -0.312500 0.000000
v 0.312500 -0.312500 -0.062500
v 0.312500 -0.375000 -0.062500
v 0.312500 -0.375000 0.000000
v 0.000000 -0.250000 -0.062500
v -0.062500 -0.250000 -0.062500
v 0.000000 -0.312500 -0.062500
v 0.062500 -0.250000 -0.062500
v 0.062500 -0.312500 -0.062500
v -0.062500 -0.437500 -0.125000
v 0.000000 -0.437500 -0.125000
v -0.062500 -0.375000 -0.125000
v 0.000000 -0.375000 -0.125000
v 0.062500 -0.437500 -0.125000
v 0.062500 -0.375000 -0.125000
v 0.000000 -0.312500 -0.125000
v -0.062500 -0.312500 -0.125000
v 0.062500 -0.312500 -0.125000
vt 0.000000 0.000000
vt 1.000000 0.000000
vt 1.000000 1.000000
vt 0.000000 1.000000
vt 0.000000 0.000000
vt 1.000000 1.000000
vt 0.000000 1.000000
vt 1.000000 0.000000
vt 1.000000 1.000000
vt 0.000000 1.000000
vt 0.000000 0.000000
vt 1.000000 0.000000
vt 1.000000 1.000000
vt 0.000000 1.000000
vt 0.000000 0.000000
vt 1.000000 0.000000
vt 1.000000 1.000000
vt 0.000000 1.000000
vt 0.000000 0.000000
vt 1.000000 0.000000
vt 0.000000 1.000000
vt 0.000000 0.000000
vt 1.000000 0.000000
vt 1.000000 1.000000
vt 0.000000 0.000000
vt 1.000000 0.000000
vt 1.000000 1.000000
vt 0.000000 1.000000
vt 0.000000 0.000000
vt 1.000000 0.000000
vt 1.000000 1.000000
vt 0.000000 1.000000
vt 0.000000 0.000000
vt 1.000000 0.000000
vt 1.000000 1.000000
vt 0.000000 1.000000
vt 0.000000 0.000000
vt 1.000000 0.000000
vt 1.000000 1.000000
vt 0.000000 1.000000
vt 0.000000 0.000000
vt 1.000000 0.000000
vt 1.000000 1.000000
vt 0.000000 0.000000
vt 1.000000 1.000000
vt 0.000000 1.000000
vt 0.000000 0.000000
vt 1.000000 0.000000
vt 1.000000 1.000000
vt 0.000000 1.000000
vt 0.000000 0.000000
vt 1.000000 0.000000
vt 1.000000 1.000000
vt 0.000000 1.000000
vt 0.000000 0.000000
vt 1.000000 0.000000
vt 0.000000 1.000000
vt 0.000000 0.000000
vt 1.000000 0.000000
vt 1.000000 1.000000
vt 0.000000 1.000000
vt 0.000000 0.000000
vt 1.000000 0.000000
vt 1.000000 1.000000
vt 0.000000 1.000000
vt 1.000000 0.000000
vt 0.000000 1.000000
vt 0.000000 0.000000
vt 1.000000 0.000000
vt 1.000000 1.000000
vt 0.000000 0.000000
vt 1.000000 0.000000
vt 1.000000 1.000000
vt 0.000000 1.000000
vt 0.000000 0.000000
vt 1.000000 0.000000
vt 1.000000 1.000000
vt 0.000000 1.000000
vt 0.000000 0.000000
vt 1.000000 0.000000
vt 1.000000 1.000000
vt 0.000000 1.000000
vt 0.000000 0.000000
vt 1.000000 0.000000
vt 1.000000 1.000000
vt 0.000000 1.000000
vt 0.000000 0.000000
vt 1.000000 0.000000
vt 1.000000 1.000000
vt 0.000000 1.000000
vt 0.000000 0.000000
vt 1.000000 0.000000
vt 1.000000 1.000000
vt 0.000000 1.000000
vt 0.000000 0.000000
vt 1.000000 0.000000
vt 0.000000 1.000000
vt 0.000000 0.000000
vt 1.000000 0.000000
vt 1.000000 1.000000
vt 0.000000 1.000000
vt 0.000000 0.000000
vt 1.000000 0.000000
vt 1.000000 1.000000
vt 0.000000 1.000000
vt 1.000000 0.000000
vt 0.000000 1.000000
vt 0.000000 0.000000
vt 1.000000 0.000000
vt 1.000000 1.000000
vt 0.000000 0.000000
vt 1.000000 0.000000
vt 1.000000 1.000000
vt 0.000000 1.000000
vt 0.000000 0.000000
vt 1.000000 0.000000
vt 1.000000 1.000000
vt 0.000000 1.000000
vt 0.000000 0.000000
vt 1.000000 0.000000
vt 1.000000 1.000000
vt 0.000000 1.000000
vt 0.000000 0.000000
vt 1.000000 0.000000
vt 1.000000 1.000000
vt 0.000000 1.000000
vt 0.000000 0.000000
vt 1.000000 0.000000
vt 1.000000 1.000000
vt 0.000000 1.000000
vt 0.000000 0.000000
vt 1.000000 0.000000
vt 0.000000 1.000000
vt 0.000000 0.000000
vt 1.000000 0.000000
vt 1.000000 1.000000
vt 0.000000 1.000000
vt 0.000000 0.000000
vt 1.000000 0.000000
vt 1.000000 1.000000
vt 0.000000 1.000000
vt 1.000000 0.000000
vt 0.000000 1.000000
vt 0.000000 0.000000
vt 1.000000 0.000000
vt 1.000000 1.000000
vt 0.000000 0.000000
vt 1.000000 0.000000
vt 1.000000 1.000000
vt 0.000000 1.000000
vt 0.000000 0.000000
vt 1.000000 0.000000
vt 1.000000 1.000000
vt 0.000000 1.000000
vt 0.000000 0.000000
vt 1.000000 0.000000
vt 1.000000 1.000000
vt 0.000000 1.000000
vt 0.000000 0.000000
vt 1.000000 0.000000
vt 1.000000 1.000000
vt 0.000000 1.000000
vt 0.000000 0.000000
vt 1.000000 0.000000
vt 0.000000 0.000000
vt 1.000000 1.000000
vt 0.000000 1.000000
vt 0.000000 0.000000
vt 1.000000 0.000000
vt 1.000000 1.000000
vt 0.000000 1.000000
vt 0.000000 0.000000
vt 1.000000 1.000000
vt 0.000000 1.000000
vt 0.000000 0.000000
vt 1.000000 0.000000
vt 0.000000 1.000000
vt 0.000000 0.000000
vt 1.000000 0.000000
vt 1.000000 1.000000
vt 0.000000 1.000000
vt 1.000000 1.000000
vt 0.000000 1.000000
vt 1.000000 0.000000
vt 0.000000 0.000000
vt 1.000000 0.000000
vt 1.000000 1.000000
vt 0.000000 0.000000
vt 1.000000 0.000000
vt 1.000000 1.000000
vt 0.000000 1.000000
vt 0.000000 0.000000
vt 1.000000 0.000000
vt 1.000000 1.000000
vt 0.000000 1.000000
vt 1.000000 0.000000
vt 1.000000 1.000000
vt 0.000000 1.000000
vt 0.000000 0.000000
vt 1.000000 0.000000
vt 1.000000 1.000000
vt 0.000000 1.000000
vt 1.000000 1.000000
vt 0.000000 1.000000
vt 0.000000 0.000000
vt 1.000000 0.000000
vt 0.000000 0.000000
vt 1.000000 0.000000
vt 1.000000 1.000000
vt 0.000000 0.000000
vt 1.000000 0.000000
vt 1.000000 1.000000
vt 0.000000 1.000000
vt 0.000000 0.000000
vt 1.000000 0.000000
vt 1.000000 1.000000
vt 0.000000 1.000000
vt 1.000000 0.000000
vt 1.000000 1.000000
vt 0.000000 1.000000
vt 0.000000 0.000000
vt 1.000000 0.000000
vt 1.000000 1.000000
vt 0.000000 1.000000
vt 0.000000 0.000000
vt 1.000000 0.000000
vt 1.000000 1.000000
vt 0.000000 1.000000
vt 0.000000 0.000000
vt 1.000000 0.000000
vt 1.000000 1.000000
vt 0.000000 1.000000
vt 0.000000 0.000000
vt 1.000000 0.000000
vt 0.000000 1.000000
vt 0.000000 0.000000
vt 1.000000 0.000000
vt 1.000000 1.000000
vt 0.000000 1.000000
vt 0.000000 0.000000
vt 1.000000 0.000000
vt 1.000000 1.000000
vt 0.000000 1.000000
vt 0.000000 0.000000
vt 1.000000 0.000000
vt 1.000000 1.000000
vt 0.000000 0.000000
vt 1.000000 0.000000
vt 1.000000 1.000000
vt 0.000000 1.000000
vt 0.000000 0.000000
vt 1.000000 0.000000
vt 1.000000 1.000000
vt 0.000000 1.000000
vt 0.000000 0.000000
vt 1.000000 0.000000
vt 1.000000 1.000000
vt 0.000000 1.000000
vt 0.000000 0.000000
vt 1.000000 1.000000
vt 0.000000 1.000000
vt 0.000000 0.000000
vt 1.000000 0.000000
vt 1.000000 1.000000
vt 0.000000 1.000000
vt 0.000000 0.000000
vt 1.000000 0.000000
vt 1.000000 1.000000
vt 0.000000 1.000000
vt 0.000000 0.000000
vt 1.000000 0.000000
vt 1.000000 1.000000
vt 0.000000 1.000000
vt 0.000000 0.000000
vt 1.000000 0.000000
vt 1.000000 1.000000
vt 0.000000 1.000000
vt 0.000000 0.000000
vt 1.000000 0.000000
vt 1.000000 1.000000
vt 0.000000 1.000000
vt 0.000000 0.000000
vt 1.000000 0.000000
vt 0.000000 1.000000
vt 1.000000 0.000000
vt 1.000000 1.000000
vt 0.000000 1.000000
vt 0.000000 0.000000
vt 1.000000 0.000000
vt 1.000000 1.000000
vt 0.000000 1.000000
vt 0.000000 0.000000
vt 1.000000 0.000000
vt 1.000000 1.000000
vt 0.000000 1.000000
vt 0.000000 0.000000
vt 1.000000 0.000000
vt 1.000000 1.000000
vt 0.000000 0.000000
vt 1.000000 0.000000
vt 1.000000 1.000000
vt 0.000000 1.000000
vt 0.000000 0.000000
vt 1.000000 0.000000
vt 1.000000 1.000000
vt 0.000000 1.000000
vt 0.000000 0.000000
vt 1.000000 1.000000
vt 0.000000 0.000000
vt 1.000000 0.000000
vt 1.000000 1.000000
vt 0.000000 1.000000
vt 0.000000 0.000000
vt 1.000000 0.000000
vt 1.000000 1.000000
vt 0.000000 1.000000
vt 0.000000 0.000000
vt 1.000000 0.000000
vt 1.000000 1.000000
vt 0.000000 1.000000
vt 0.000000 0.000000
vt 1.000000 1.000000
vt 0.000000 1.000000
vt 0.000000 0.000000
vt 1.000000 0.000000
vt 1.000000 1.000000
vt 0.000000 1.000000
vt 0.000000 0.000000
vt 1.000000 0.000000
vt 1.000000 1.000000
vt 0.000000 1.000000
vt 0.000000 0.000000
vt 1.000000 0.000000
vt 1.000000 1.000000
vt 0.000000 1.000000
vt 0.000000 0.000000
vt 1.000000 0.000000
vt 1.000000 1.000000
vt 0.000000 1.000000
vt 0.000000 0.000000
vt 1.000000 0.000000
vt 1.000000 1.000000
vt 0.000000 1.000000
vt 0.000000 0.000000
vt 1.000000 0.000000
vt 0.000000 1.000000
vt 1.000000 0.000000
vt 1.000000 1.000000
vt 0.000000 1.000000
vt 0.000000 0.000000
vt 1.000000 0.000000
vt 1.000000 1.000000
vt 0.000000 1.000000
vt 0.000000 0.000000
vt 1.000000 0.000000
vt 1.000000 1.000000
vt 0.000000 1.000000
vt 0.000000 0.000000
vt 1.000000 0.000000
vt 1.000000 1.000000
vt 0.000000 0.000000
vt 1.000000 0.000000
vt 1.000000 1.000000
vt 0.000000 1.000000
vt 1.000000 0.000000
vt 1.000000 1.000000
vt 1.000000 0.000000
vt 1.000000 1.000000
vt 0.000000 0.000000
vt 0.000000 1.000000
vt 0.000000 0.000000
vt 1.000000 0.000000
vt 1.000000 1.000000
vt 0.000000 1.000000
vt 0.000000 0.000000
vt 1.000000 0.000000
vt 1.000000 1.000000
vt 0.000000 1.000000
vt 0.000000 0.000000
vt 1.000000 0.000000
vt 1.000000 1.000000
vt 0.000000 1.000000
vt 0.000000 0.000000
vt 1.000000 1.000000
vt 0.000000 0.000000
vt 1.000000 0.000000
vt 1.000000 1.000000
vt 0.000000 1.000000
vt 0.000000 0.000000
vt 1.000000 0.000000
vt 1.000000 1.000000
vt 0.000000 0.000000
vt 1.000000 0.000000
vt 0.000000 1.000000
vt 0.000000 0.000000
vt 0.000000 0.000000
vt 1.000000 0.000000
vt 0.000000 1.000000
vt 0.000000 0.000000
vt 1.000000 0.000000
vt 1.000000 1.000000
vt 0.000000 1.000000
vt 0.000000 0.000000
vt 1.000000 0.000000
vt 1.000000 1.000000
vt 0.000000 1.000000
vt 1.000000 0.000000
vt 0.000000 0.000000
vt 1.000000 1.000000
vt 0.000000 1.000000
vt 0.000000 0.000000
vt 1.000000 1.000000
vt 0.000000 1.000000
vt 1.000000 1.000000
vt 0.000000 1.000000
vt 0.000000 0.000000
vt 1.000000 0.000000
vt 0.000000 0.000000
vt 1.000000 0.000000
vt 1.000000 1.000000
vt 0.000000 1.000000
vt 1.000000 1.000000
vt 0.000000 0.000000
vt 1.000000 0.000000
vt 0.000000 1.000000
vt 0.000000 0.000000
vt 1.000000 0.000000
vt 0.000000 1.000000
vn 0.0000 -1.0000 0.0000
vn 1.0000 0.0000 0.0000
vn -1.0000 0.0000 0.0000
vn 0.0000 -0.0000 1.0000
vn 0.0000 1.0000 0.0000
vn 0.0000 0.0000 -1.0000
usemtl civ_white.png^[colorize:#4a240d:230.001
s 1
f 1/1/1 2/2/1 3/3/1 4/4/1
f 3/5/2 2/2/2 5/6/2 6/7/2
f 1/1/3 4/8/3 7/9/3 8/10/3
f 4/11/4 3/12/4 6/13/4 7/14/4
f 9/15/5 10/16/5 11/17/5 12/18/5
f 6/19/2 5/20/2 11/17/2 10/21/2
f 8/22/3 7/23/3 9/24/3 12/18/3
f 7/25/4 6/26/4 10/27/4 9/28/4
f 13/29/2 14/30/2 15/31/2 2/32/2
f 16/33/3 17/34/3 1/35/3 18/36/3
f 17/37/4 13/38/4 2/39/4 1/40/4
f 15/41/1 19/42/1 20/43/1 2/32/1
f 20/44/2 19/42/2 21/45/2 22/46/2
f 2/47/4 20/48/4 22/49/4 5/50/4
f 11/51/5 23/52/5 24/53/5 25/54/5
f 22/55/2 21/56/2 24/53/2 23/57/2
f 5/58/4 22/59/4 23/60/4 11/61/4
f 26/62/5 27/63/5 28/64/5 29/65/5
f 11/51/2 25/66/2 28/64/2 27/67/2
f 30/68/3 12/69/3 26/70/3 29/65/3
f 12/71/4 11/72/4 27/73/4 26/74/4
f 31/75/2 32/76/2 33/77/2 19/78/2
f 14/79/4 31/80/4 19/81/4 15/82/4
f 19/83/2 33/84/2 34/85/2 21/86/2
f 21/87/2 34/88/2 35/89/2 24/90/2
f 28/91/5 36/92/5 37/93/5 38/94/5
f 24/95/2 35/96/2 37/93/2 36/97/2
f 25/98/4 24/99/4 36/100/4 28/101/4
f 39/102/5 40/103/5 41/104/5 42/105/5
f 28/91/2 38/106/2 41/104/2 40/107/2
f 43/108/3 29/109/3 39/110/3 42/105/3
f 29/111/4 28/112/4 40/113/4 39/114/4
f 32/115/2 44/116/2 45/117/2 33/118/2
f 44/119/6 46/120/6 47/121/6 45/122/6
f 33/123/2 45/124/2 48/125/2 34/126/2
f 38/127/5 37/128/5 49/129/5 50/130/5
f 35/131/2 51/132/2 49/129/2 37/133/2
f 51/134/6 52/135/6 50/136/6 49/137/6
f 42/138/5 41/139/5 53/140/5 54/141/5
f 38/127/2 50/142/2 53/140/2 41/143/2
f 55/144/3 43/145/3 42/146/3 54/141/3
f 50/147/6 55/148/6 54/149/6 53/150/6
f 46/151/2 56/152/2 57/153/2 47/154/2
f 58/155/3 59/156/3 60/157/3 61/158/3
f 56/159/6 58/160/6 61/161/6 57/162/6
f 57/163/1 62/164/1 45/117/1 47/154/1
f 45/165/2 62/164/2 63/166/2 48/167/2
f 62/168/6 57/169/6 64/170/6 63/171/6
f 52/172/5 51/132/5 65/173/5 66/174/5
f 48/175/2 63/176/2 65/173/2 51/177/2
f 63/178/6 64/179/6 66/180/6 65/181/6
f 55/144/5 50/142/5 67/182/5 68/183/5
f 52/172/2 66/184/2 67/182/2 50/130/2
f 69/185/3 70/186/3 55/187/3 68/183/3
f 66/188/6 69/189/6 68/190/6 67/191/6
f 71/192/1 72/193/1 57/153/1 61/158/1
f 57/163/2 72/193/2 73/194/2 64/195/2
f 71/192/3 61/196/3 74/197/3 75/198/3
f 72/199/6 71/200/6 75/201/6 73/202/6
f 69/185/5 66/184/5 76/203/5 77/204/5
f 64/205/2 73/206/2 76/203/2 66/174/2
f 75/207/3 74/208/3 69/209/3 77/204/3
f 73/210/6 75/211/6 77/212/6 76/213/6
usemtl civ_wood.png.001
f 78/214/1 79/215/1 80/216/1 81/217/1
f 78/214/3 81/218/3 82/219/3 83/220/3
f 81/221/4 80/222/4 84/223/4 82/224/4
f 79/225/1 85/226/1 86/227/1 80/228/1
f 80/229/4 86/230/4 87/231/4 84/232/4
f 85/233/1 18/234/1 1/35/1 86/235/1
f 86/236/4 1/237/4 8/238/4 87/239/4
f 88/240/5 89/241/5 90/242/5 91/243/5
f 83/244/3 82/245/3 88/246/3 91/243/3
f 82/247/4 84/248/4 89/249/4 88/250/4
f 89/251/5 92/252/5 93/253/5 90/254/5
f 84/255/4 87/256/4 92/257/4 89/258/4
f 92/259/5 12/69/5 30/260/5 93/261/5
f 87/262/4 8/263/4 12/264/4 92/265/4
f 94/266/3 95/267/3 78/268/3 96/269/3
f 95/270/4 97/271/4 79/272/4 78/273/4
f 97/274/4 98/275/4 85/276/4 79/277/4
f 98/278/4 16/279/4 18/280/4 85/281/4
f 99/282/1 96/283/1 78/268/1 100/284/1
f 99/282/3 100/285/3 101/286/3 102/287/3
f 100/288/4 78/289/4 83/290/4 101/291/4
f 103/292/5 91/293/5 104/294/5 105/295/5
f 102/296/3 101/297/3 103/298/3 105/295/3
f 101/299/4 83/300/4 91/301/4 103/302/4
f 106/303/5 107/304/5 108/305/5 109/306/5
f 104/307/3 91/293/3 106/308/3 109/306/3
f 91/309/4 90/310/4 107/311/4 106/312/4
f 107/313/5 110/314/5 111/315/5 108/316/5
f 90/317/4 93/318/4 110/319/4 107/320/4
f 110/321/5 29/109/5 43/322/5 111/323/5
f 93/324/4 30/325/4 29/326/4 110/327/4
f 112/328/3 94/329/3 96/330/3 113/331/3
f 114/332/6 112/333/6 113/334/6 115/335/6
f 116/336/6 114/337/6 115/338/6 117/339/6
f 59/340/6 116/341/6 117/342/6 60/343/6
f 118/344/1 113/345/1 96/330/1 99/346/1
f 118/344/3 99/347/3 102/348/3 119/349/3
f 113/350/6 118/351/6 119/352/6 120/353/6
f 105/354/5 104/355/5 121/356/5 122/357/5
f 119/358/3 102/359/3 105/360/3 122/357/3
f 120/361/6 119/362/6 122/363/6 121/364/6
f 35/131/5 123/365/5 124/366/5 51/177/5
f 48/175/1 125/367/1 126/368/1 34/126/1
f 126/369/2 125/367/2 124/366/2 123/370/2
f 125/371/6 48/372/6 51/373/6 124/374/6
f 34/375/4 126/376/4 123/377/4 35/378/4
f 109/379/5 108/380/5 127/381/5 128/382/5
f 121/383/3 104/355/3 109/384/3 128/382/3
f 129/385/6 121/386/6 128/387/6 127/388/6
f 108/389/5 111/390/5 130/391/5 127/388/5
f 131/392/6 129/393/6 127/381/6 130/394/6
f 111/395/5 43/145/5 55/187/5 130/394/5
f 70/396/6 131/397/6 130/391/6 55/398/6
f 132/399/1 133/400/1 115/338/1 113/331/1
f 132/399/3 113/345/3 120/401/3 134/402/3
f 133/403/6 132/404/6 134/405/6 135/406/6
f 133/403/1 136/407/1 117/342/1 115/335/1
f 136/408/6 133/400/6 135/409/6 137/410/6
f 136/408/1 61/196/1 60/157/1 117/339/1
f 61/411/6 136/407/6 137/412/6 74/413/6
f 121/383/5 129/393/5 138/414/5 139/415/5
f 134/416/3 120/417/3 121/356/3 139/415/3
f 135/418/6 134/419/6 139/420/6 138/421/6
f 129/385/5 131/397/5 140/422/5 138/421/5
f 137/423/6 135/424/6 138/414/6 140/425/6
f 131/392/5 70/186/5 69/209/5 140/425/5
f 74/426/6 137/427/6 140/422/6 69/428/6
