# Blender v2.91.2 OBJ File: ''
# www.blender.org
mtllib untitled.mtl
o model
v -0.062500 0.187500 0.062500
v 0.000000 0.187500 0.062500
v 0.000000 0.187500 0.125000
v -0.062500 0.187500 0.125000
v -0.062500 0.125000 0.125000
v -0.062500 0.125000 0.062500
v 0.000000 0.125000 0.125000
v 0.062500 0.187500 0.062500
v 0.062500 0.187500 0.125000
v 0.062500 0.125000 0.062500
v 0.062500 0.125000 0.125000
v -0.125000 0.125000 0.062500
v -0.125000 0.125000 0.125000
v -0.125000 0.062500 0.125000
v -0.125000 0.062500 0.062500
v -0.062500 0.062500 0.125000
v 0.000000 0.062500 0.125000
v 0.062500 0.062500 0.125000
v 0.125000 0.125000 0.062500
v 0.125000 0.125000 0.125000
v 0.125000 0.062500 0.062500
v 0.125000 0.062500 0.125000
v -0.125000 0.000000 0.125000
v -0.062500 0.000000 0.125000
v -0.062500 0.000000 0.062500
v -0.125000 0.000000 0.062500
v 0.000000 0.000000 0.125000
v 0.062500 0.000000 0.125000
v 0.125000 0.000000 0.125000
v 0.125000 0.000000 0.062500
v 0.062500 0.000000 0.062500
v -0.062500 -0.062500 0.125000
v 0.000000 -0.062500 0.125000
v 0.000000 -0.062500 0.062500
v -0.062500 -0.062500 0.062500
v 0.062500 -0.062500 0.125000
v 0.062500 -0.062500 0.062500
v -0.062500 0.500000 0.000000
v -0.062500 0.500000 0.062500
v -0.062500 0.437500 0.062500
v -0.062500 0.437500 0.000000
v 0.000000 0.500000 0.062500
v 0.000000 0.437500 0.062500
v 0.062500 0.500000 0.062500
v 0.062500 0.500000 0.000000
v 0.062500 0.437500 0.000000
v 0.062500 0.437500 0.062500
v -0.062500 0.375000 0.062500
v -0.062500 0.375000 0.000000
v 0.000000 0.375000 0.062500
v 0.062500 0.375000 0.000000
v 0.062500 0.375000 0.062500
v -0.062500 0.312500 0.062500
v -0.062500 0.312500 0.000000
v 0.000000 0.312500 0.062500
v 0.062500 0.312500 0.000000
v 0.062500 0.312500 0.062500
v -0.062500 0.250000 0.062500
v -0.062500 0.250000 0.000000
v 0.000000 0.250000 0.062500
v 0.062500 0.250000 0.000000
v 0.062500 0.250000 0.062500
v -0.062500 0.187500 0.000000
v 0.062500 0.187500 0.000000
v -0.125000 0.187500 0.000000
v -0.125000 0.187500 0.062500
v -0.125000 0.125000 0.000000
v 0.125000 0.187500 0.000000
v 0.125000 0.187500 0.062500
v 0.125000 0.125000 0.000000
v -0.125000 0.062500 0.000000
v 0.125000 0.062500 0.000000
v -0.125000 0.000000 0.000000
v 0.125000 0.000000 0.000000
v -0.125000 -0.062500 0.062500
v -0.062500 -0.062500 0.000000
v -0.125000 -0.062500 0.000000
v 0.000000 -0.062500 0.000000
v 0.062500 -0.062500 0.000000
v 0.125000 -0.062500 0.062500
v 0.125000 -0.062500 0.000000
v -0.062500 0.500000 -0.062500
v -0.062500 0.437500 -0.062500
v 0.000000 0.500000 -0.062500
v 0.000000 0.437500 -0.062500
v 0.062500 0.500000 -0.062500
v 0.062500 0.437500 -0.062500
v -0.062500 0.375000 -0.062500
v 0.000000 0.375000 -0.062500
v 0.062500 0.375000 -0.062500
v -0.062500 0.312500 -0.062500
v 0.000000 0.312500 -0.062500
v 0.062500 0.312500 -0.062500
v -0.062500 0.250000 -0.062500
v 0.000000 0.250000 -0.062500
v 0.062500 0.250000 -0.062500
v -0.062500 0.187500 -0.062500
v 0.000000 0.187500 -0.062500
v 0.062500 0.187500 -0.062500
v -0.125000 0.187500 -0.062500
v -0.125000 0.125000 -0.062500
v -0.062500 0.125000 -0.062500
v 0.125000 0.187500 -0.062500
v 0.125000 0.125000 -0.062500
v 0.062500 0.125000 -0.062500
v -0.125000 0.062500 -0.062500
v 0.125000 0.062500 -0.062500
v -0.125000 0.000000 -0.062500
v 0.125000 0.000000 -0.062500
v -0.062500 -0.062500 -0.062500
v -0.125000 -0.062500 -0.062500
v -0.062500 0.000000 -0.062500
v 0.000000 -0.062500 -0.062500
v 0.062500 -0.062500 -0.062500
v 0.125000 -0.062500 -0.062500
v 0.062500 0.000000 -0.062500
v -0.062500 0.187500 -0.125000
v 0.000000 0.187500 -0.125000
v -0.062500 0.125000 -0.125000
v 0.000000 0.125000 -0.125000
v 0.062500 0.187500 -0.125000
v 0.062500 0.125000 -0.125000
v -0.125000 0.125000 -0.125000
v -0.125000 0.062500 -0.125000
v -0.062500 0.062500 -0.125000
v 0.000000 0.062500 -0.125000
v 0.062500 0.062500 -0.125000
v 0.125000 0.125000 -0.125000
v 0.125000 0.062500 -0.125000
v -0.062500 0.000000 -0.125000
v -0.125000 0.000000 -0.125000
v 0.000000 0.000000 -0.125000
v 0.062500 0.000000 -0.125000
v 0.125000 0.000000 -0.125000
v 0.000000 -0.062500 -0.125000
v -0.062500 -0.062500 -0.125000
v 0.062500 -0.062500 -0.125000
vt 0.000000 0.000000
vt 0.000000 1.000000
vt 1.000000 1.000000
vt 1.000000 0.000000
vt 0.000000 1.000000
vt 1.000000 1.000000
vt 1.000000 0.000000
vt 0.000000 0.000000
vt 0.000000 1.000000
vt 1.000000 1.000000
vt 1.000000 0.000000
vt 0.000000 0.000000
vt 0.000000 1.000000
vt 1.000000 1.000000
vt 1.000000 0.000000
vt 0.000000 0.000000
vt 0.000000 1.000000
vt 1.000000 1.000000
vt 0.000000 0.000000
vt 0.000000 1.000000
vt 1.000000 1.000000
vt 1.000000 0.000000
vt 0.000000 0.000000
vt 0.000000 1.000000
vt 1.000000 0.000000
vt 0.000000 1.000000
vt 1.000000 1.000000
vt 1.000000 0.000000
vt 0.000000 0.000000
vt 0.000000 1.000000
vt 1.000000 1.000000
vt 1.000000 0.000000
vt 0.000000 0.000000
vt 0.000000 1.000000
vt 1.000000 1.000000
vt 1.000000 0.000000
vt 0.000000 0.000000
vt 0.000000 1.000000
vt 1.000000 1.000000
vt 1.000000 0.000000
vt 0.000000 0.000000
vt 1.000000 1.000000
vt 1.000000 0.000000
vt 0.000000 0.000000
vt 0.000000 1.000000
vt 1.000000 1.000000
vt 0.000000 0.000000
vt 0.000000 1.000000
vt 1.000000 1.000000
vt 1.000000 0.000000
vt 0.000000 0.000000
vt 0.000000 1.000000
vt 1.000000 1.000000
vt 1.000000 0.000000
vt 0.000000 0.000000
vt 1.000000 1.000000
vt 1.000000 0.000000
vt 0.000000 0.000000
vt 0.000000 1.000000
vt 1.000000 1.000000
vt 1.000000 0.000000
vt 0.000000 0.000000
vt 0.000000 1.000000
vt 1.000000 1.000000
vt 1.000000 0.000000
vt 0.000000 0.000000
vt 0.000000 1.000000
vt 1.000000 1.000000
vt 1.000000 0.000000
vt 0.000000 0.000000
vt 0.000000 1.000000
vt 1.000000 1.000000
vt 1.000000 0.000000
vt 0.000000 0.000000
vt 0.000000 1.000000
vt 1.000000 0.000000
vt 0.000000 0.000000
vt 0.000000 1.000000
vt 1.000000 1.000000
vt 1.000000 0.000000
vt 0.000000 0.000000
vt 0.000000 1.000000
vt 1.000000 1.000000
vt 1.000000 0.000000
vt 0.000000 0.000000
vt 1.000000 1.000000
vt 0.000000 0.000000
vt 0.000000 1.000000
vt 1.000000 1.000000
vt 1.000000 0.000000
vt 0.000000 0.000000
vt 0.000000 1.000000
vt 1.000000 1.000000
vt 1.000000 0.000000
vt 0.000000 1.000000
vt 1.000000 0.000000
vt 0.000000 0.000000
vt 0.000000 1.000000
vt 1.000000 1.000000
vt 1.000000 0.000000
vt 0.000000 0.000000
vt 0.000000 1.000000
vt 1.000000 1.000000
vt 1.000000 0.000000
vt 0.000000 0.000000
vt 0.000000 1.000000
vt 1.000000 1.000000
vt 1.000000 0.000000
vt 0.000000 0.000000
vt 0.000000 1.000000
vt 1.000000 1.000000
vt 1.000000 0.000000
vt 0.000000 0.000000
vt 0.000000 1.000000
vt 1.000000 1.000000
vt 1.000000 0.000000
vt 0.000000 0.000000
vt 0.000000 1.000000
vt 1.000000 1.000000
vt 1.000000 0.000000
vt 0.000000 0.000000
vt 0.000000 1.000000
vt 1.000000 1.000000
vt 1.000000 0.000000
vt 0.000000 0.000000
vt 0.000000 1.000000
vt 1.000000 1.000000
vt 1.000000 0.000000
vt 0.000000 0.000000
vt 0.000000 1.000000
vt 1.000000 1.000000
vt 1.000000 0.000000
vt 0.000000 0.000000
vt 0.000000 1.000000
vt 1.000000 1.000000
vt 1.000000 0.000000
vt 0.000000 0.000000
vt 0.000000 1.000000
vt 1.000000 1.000000
vt 1.000000 0.000000
vt 0.000000 0.000000
vt 0.000000 1.000000
vt 1.000000 1.000000
vt 1.000000 0.000000
vt 0.000000 0.000000
vt 0.000000 1.000000
vt 1.000000 1.000000
vt 1.000000 0.000000
vt 0.000000 0.000000
vt 0.000000 1.000000
vt 1.000000 1.000000
vt 1.000000 0.000000
vt 0.000000 0.000000
vt 0.000000 1.000000
vt 1.000000 1.000000
vt 1.000000 0.000000
vt 0.000000 0.000000
vt 0.000000 1.000000
vt 1.000000 1.000000
vt 1.000000 0.000000
vt 0.000000 0.000000
vt 0.000000 1.000000
vt 1.000000 1.000000
vt 1.000000 0.000000
vt 0.000000 0.000000
vt 0.000000 1.000000
vt 1.000000 1.000000
vt 1.000000 0.000000
vt 0.000000 0.000000
vt 0.000000 1.000000
vt 1.000000 1.000000
vt 1.000000 0.000000
vt 0.000000 0.000000
vt 0.000000 1.000000
vt 1.000000 1.000000
vt 1.000000 0.000000
vt 0.000000 0.000000
vt 0.000000 1.000000
vt 1.000000 1.000000
vt 1.000000 0.000000
vt 0.000000 0.000000
vt 0.000000 1.000000
vt 1.000000 0.000000
vt 0.000000 1.000000
vt 1.000000 1.000000
vt 1.000000 0.000000
vt 0.000000 0.000000
vt 0.000000 1.000000
vt 1.000000 1.000000
vt 1.000000 0.000000
vt 0.000000 0.000000
vt 1.000000 1.000000
vt 1.000000 0.000000
vt 0.000000 0.000000
vt 0.000000 1.000000
vt 1.000000 1.000000
vt 0.000000 0.000000
vt 0.000000 1.000000
vt 1.000000 1.000000
vt 1.000000 0.000000
vt 0.000000 0.000000
vt 0.000000 1.000000
vt 1.000000 1.000000
vt 1.000000 0.000000
vt 0.000000 0.000000
vt 0.000000 1.000000
vt 1.000000 1.000000
vt 1.000000 0.000000
vt 0.000000 0.000000
vt 0.000000 1.000000
vt 1.000000 1.000000
vt 1.000000 0.000000
vt 0.000000 0.000000
vt 0.000000 1.000000
vt 1.000000 1.000000
vt 1.000000 0.000000
vt 0.000000 0.000000
vt 0.000000 1.000000
vt 1.000000 1.000000
vt 1.000000 0.000000
vt 0.000000 0.000000
vt 1.000000 1.000000
vt 1.000000 0.000000
vt 0.000000 0.000000
vt 0.000000 1.000000
vt 1.000000 1.000000
vt 1.000000 0.000000
vt 0.000000 0.000000
vt 0.000000 1.000000
vt 1.000000 1.000000
vt 1.000000 0.000000
vt 0.000000 0.000000
vt 0.000000 1.000000
vt 1.000000 1.000000
vt 1.000000 0.000000
vt 0.000000 0.000000
vt 0.000000 1.000000
vt 1.000000 1.000000
vt 1.000000 0.000000
vt 0.000000 0.000000
vt 0.000000 1.000000
vt 1.000000 0.000000
vt 0.000000 0.000000
vt 0.000000 1.000000
vt 1.000000 1.000000
vt 1.000000 0.000000
vt 0.000000 0.000000
vt 0.000000 1.000000
vt 1.000000 1.000000
vt 1.000000 0.000000
vt 0.000000 0.000000
vt 0.000000 1.000000
vt 1.000000 1.000000
vt 1.000000 0.000000
vt 0.000000 0.000000
vt 0.000000 1.000000
vt 1.000000 1.000000
vt 1.000000 0.000000
vt 0.000000 0.000000
vt 0.000000 1.000000
vt 1.000000 1.000000
vt 1.000000 0.000000
vt 0.000000 0.000000
vt 0.000000 1.000000
vt 1.000000 1.000000
vt 1.000000 0.000000
vt 0.000000 0.000000
vt 0.000000 1.000000
vt 1.000000 1.000000
vt 1.000000 0.000000
vt 0.000000 0.000000
vt 0.000000 1.000000
vt 1.000000 1.000000
vt 1.000000 0.000000
vt 0.000000 0.000000
vt 0.000000 1.000000
vt 1.000000 1.000000
vt 1.000000 0.000000
vt 0.000000 0.000000
vt 0.000000 1.000000
vt 1.000000 1.000000
vt 1.000000 0.000000
vt 0.000000 0.000000
vt 0.000000 1.000000
vt 1.000000 1.000000
vt 1.000000 0.000000
vt 0.000000 0.000000
vt 0.000000 1.000000
vt 1.000000 1.000000
vt 1.000000 0.000000
vt 0.000000 0.000000
vt 0.000000 1.000000
vt 1.000000 1.000000
vt 1.000000 0.000000
vt 0.000000 0.000000
vt 0.000000 1.000000
vt 1.000000 1.000000
vt 1.000000 0.000000
vt 0.000000 0.000000
vt 0.000000 1.000000
vt 1.000000 1.000000
vt 1.000000 0.000000
vt 0.000000 0.000000
vt 0.000000 1.000000
vt 1.000000 1.000000
vt 1.000000 0.000000
vt 0.000000 0.000000
vt 0.000000 1.000000
vt 1.000000 1.000000
vt 1.000000 0.000000
vt 0.000000 0.000000
vt 0.000000 1.000000
vt 1.000000 1.000000
vt 1.000000 0.000000
vt 0.000000 0.000000
vt 0.000000 1.000000
vt 1.000000 1.000000
vt 1.000000 0.000000
vt 0.000000 0.000000
vt 0.000000 1.000000
vt 1.000000 1.000000
vt 1.000000 0.000000
vt 0.000000 0.000000
vt 0.000000 1.000000
vt 1.000000 1.000000
vt 1.000000 0.000000
vt 0.000000 0.000000
vt 0.000000 1.000000
vt 1.000000 0.000000
vt 0.000000 1.000000
vt 1.000000 1.000000
vt 1.000000 0.000000
vt 0.000000 0.000000
vt 0.000000 1.000000
vt 1.000000 1.000000
vt 1.000000 0.000000
vt 0.000000 0.000000
vt 1.000000 1.000000
vt 1.000000 0.000000
vt 0.000000 0.000000
vt 0.000000 1.000000
vt 1.000000 1.000000
vt 0.000000 0.000000
vt 0.000000 1.000000
vt 1.000000 1.000000
vt 1.000000 0.000000
vt 0.000000 0.000000
vt 0.000000 1.000000
vt 1.000000 1.000000
vt 1.000000 0.000000
vt 0.000000 0.000000
vt 0.000000 1.000000
vt 1.000000 1.000000
vt 1.000000 0.000000
vt 0.000000 0.000000
vt 0.000000 1.000000
vt 1.000000 1.000000
vt 1.000000 0.000000
vt 0.000000 0.000000
vt 0.000000 1.000000
vt 1.000000 1.000000
vt 1.000000 0.000000
vt 0.000000 0.000000
vt 0.000000 1.000000
vt 1.000000 1.000000
vt 1.000000 0.000000
vt 0.000000 0.000000
vt 1.000000 1.000000
vt 1.000000 0.000000
vt 0.000000 0.000000
vt 0.000000 1.000000
vt 1.000000 1.000000
vt 1.000000 0.000000
vt 0.000000 0.000000
vt 1.000000 1.000000
vt 1.000000 0.000000
vt 0.000000 0.000000
vt 0.000000 1.000000
vt 1.000000 1.000000
vt 1.000000 0.000000
vt 0.000000 0.000000
vt 0.000000 1.000000
vt 1.000000 1.000000
vt 1.000000 0.000000
vt 0.000000 0.000000
vt 0.000000 1.000000
vt 1.000000 0.000000
vt 0.000000 0.000000
vt 0.000000 1.000000
vt 1.000000 0.000000
vt 0.000000 0.000000
vt 1.000000 0.000000
vt 0.000000 1.000000
vt 1.000000 1.000000
vt 0.000000 0.000000
vt 0.000000 1.000000
vt 1.000000 1.000000
vt 1.000000 0.000000
vt 1.000000 0.000000
vt 0.000000 1.000000
vt 1.000000 1.000000
vt 0.000000 0.000000
vt 0.000000 1.000000
vt 1.000000 1.000000
vt 0.000000 0.000000
vt 1.000000 0.000000
vt 0.000000 1.000000
vt 1.000000 1.000000
vt 1.000000 0.000000
vt 0.000000 0.000000
vt 0.000000 1.000000
vt 1.000000 1.000000
vt 1.000000 0.000000
vt 0.000000 0.000000
vt 0.000000 1.000000
vt 1.000000 1.000000
vt 0.000000 0.000000
vt 0.000000 1.000000
vt 1.000000 1.000000
vt 1.000000 0.000000
vt 1.000000 0.000000
vt 0.000000 0.000000
vt 0.000000 1.000000
vt 1.000000 1.000000
vt 0.000000 0.000000
vt 0.000000 1.000000
vt 1.000000 1.000000
vt 1.000000 0.000000
vt 0.000000 1.000000
vt 1.000000 1.000000
vt 1.000000 0.000000
vt 0.000000 0.000000
vt 1.000000 1.000000
vt 1.000000 0.000000
vt 0.000000 0.000000
vt 0.000000 1.000000
vt 1.000000 1.000000
vt 1.000000 0.000000
vt 0.000000 0.000000
vt 0.000000 1.000000
vt 1.000000 0.000000
vt 0.000000 0.000000
vt 0.000000 1.000000
vt 1.000000 1.000000
vt 1.000000 0.000000
vt 0.000000 0.000000
vt 1.000000 1.000000
vt 0.000000 0.000000
vt 0.000000 1.000000
vt 1.000000 0.000000
vt 0.000000 0.000000
vt 0.000000 1.000000
vt 1.000000 1.000000
vt 1.000000 0.000000
vt 0.000000 0.000000
vt 0.000000 1.000000
vt 1.000000 1.000000
vt 1.000000 0.000000
vt 0.000000 0.000000
vt 0.000000 0.000000
vt 0.000000 1.000000
vt 1.000000 1.000000
vt 1.000000 0.000000
vt 0.000000 0.000000
vt 1.000000 1.000000
vt 1.000000 0.000000
vt 1.000000 0.000000
vt 0.000000 0.000000
vt 0.000000 1.000000
vt 1.000000 0.000000
vn 0.0000 1.0000 0.0000
vn -1.0000 0.0000 0.0000
vn 0.0000 -0.0000 1.0000
vn 1.0000 0.0000 0.0000
vn 0.0000 -1.0000 0.0000
vn 0.0000 0.0000 -1.0000
usemtl civ_grass_small.png
s 1
f 1/1/1 4/2/1 3/3/1 2/4/1
f 1/1/2 6/5/2 5/6/2 4/7/2
f 4/8/3 5/9/3 7/10/3 3/11/3
f 2/12/1 3/13/1 9/14/1 8/15/1
f 9/16/4 11/17/4 10/18/4 8/15/4
f 3/19/3 7/20/3 11/21/3 9/22/3
f 12/23/1 13/24/1 5/6/1 6/25/1
f 12/23/2 15/26/2 14/27/2 13/28/2
f 13/29/3 14/30/3 16/31/3 5/32/3
f 5/33/3 16/34/3 17/35/3 7/36/3
f 7/37/3 17/38/3 18/39/3 11/40/3
f 10/41/1 11/17/1 20/42/1 19/43/1
f 20/44/4 22/45/4 21/46/4 19/43/4
f 11/47/3 18/48/3 22/49/3 20/50/3
f 23/51/5 26/52/5 25/53/5 24/54/5
f 15/55/2 26/52/2 23/56/2 14/57/2
f 14/58/3 23/59/3 24/60/3 16/61/3
f 16/62/3 24/63/3 27/64/3 17/65/3
f 17/66/3 27/67/3 28/68/3 18/69/3
f 28/70/5 31/71/5 30/72/5 29/73/5
f 22/74/4 29/75/4 30/72/4 21/76/4
f 18/77/3 28/78/3 29/79/3 22/80/3
f 32/81/5 35/82/5 34/83/5 33/84/5
f 25/85/2 35/82/2 32/86/2 24/54/2
f 24/87/3 32/88/3 33/89/3 27/90/3
f 33/91/5 34/92/5 37/93/5 36/94/5
f 28/70/4 36/95/4 37/93/4 31/96/4
f 27/97/3 33/98/3 36/99/3 28/100/3
f 38/101/2 41/102/2 40/103/2 39/104/2
f 39/105/3 40/106/3 43/107/3 42/108/3
f 44/109/4 47/110/4 46/111/4 45/112/4
f 42/113/3 43/114/3 47/115/3 44/116/3
f 41/117/2 49/118/2 48/119/2 40/120/2
f 40/121/3 48/122/3 50/123/3 43/124/3
f 47/125/4 52/126/4 51/127/4 46/128/4
f 43/129/3 50/130/3 52/131/3 47/132/3
f 49/133/2 54/134/2 53/135/2 48/136/2
f 48/137/3 53/138/3 55/139/3 50/140/3
f 52/141/4 57/142/4 56/143/4 51/144/4
f 50/145/3 55/146/3 57/147/3 52/148/3
f 54/149/2 59/150/2 58/151/2 53/152/2
f 53/153/3 58/154/3 60/155/3 55/156/3
f 57/157/4 62/158/4 61/159/4 56/160/4
f 55/161/3 60/162/3 62/163/3 57/164/3
f 59/165/2 63/166/2 1/167/2 58/168/2
f 58/169/3 1/170/3 2/171/3 60/172/3
f 62/173/4 8/174/4 64/175/4 61/176/4
f 60/177/3 2/178/3 8/179/3 62/180/3
f 65/181/1 66/182/1 1/167/1 63/183/1
f 65/181/2 67/184/2 12/185/2 66/186/2
f 66/187/3 12/188/3 6/189/3 1/190/3
f 64/191/1 8/174/1 69/192/1 68/193/1
f 69/194/4 19/195/4 70/196/4 68/193/4
f 8/197/3 10/198/3 19/199/3 69/200/3
f 67/201/2 71/202/2 15/203/2 12/204/2
f 19/205/4 21/206/4 72/207/4 70/208/4
f 71/209/2 73/210/2 26/211/2 15/212/2
f 21/213/4 30/214/4 74/215/4 72/216/4
f 75/217/5 77/218/5 76/219/5 35/220/5
f 73/221/2 77/218/2 75/222/2 26/223/2
f 26/224/3 75/225/3 35/226/3 25/227/3
f 35/228/5 76/229/5 78/230/5 34/231/5
f 34/232/5 78/233/5 79/234/5 37/235/5
f 37/236/5 79/237/5 81/238/5 80/239/5
f 30/240/4 80/241/4 81/238/4 74/242/4
f 31/243/3 37/244/3 80/245/3 30/246/3
f 82/247/2 83/248/2 41/249/2 38/250/2
f 84/251/6 85/252/6 83/253/6 82/254/6
f 45/255/4 46/256/4 87/257/4 86/258/4
f 86/259/6 87/260/6 85/261/6 84/262/6
f 83/263/2 88/264/2 49/265/2 41/266/2
f 85/267/6 89/268/6 88/269/6 83/270/6
f 46/271/4 51/272/4 90/273/4 87/274/4
f 87/275/6 90/276/6 89/277/6 85/278/6
f 88/279/2 91/280/2 54/281/2 49/282/2
f 89/283/6 92/284/6 91/285/6 88/286/6
f 51/287/4 56/288/4 93/289/4 90/290/4
f 90/291/6 93/292/6 92/293/6 89/294/6
f 91/295/2 94/296/2 59/297/2 54/298/2
f 92/299/6 95/300/6 94/301/6 91/302/6
f 56/303/4 61/304/4 96/305/4 93/306/4
f 93/307/6 96/308/6 95/309/6 92/310/6
f 94/311/2 97/312/2 63/313/2 59/314/2
f 95/315/6 98/316/6 97/317/6 94/318/6
f 61/319/4 64/320/4 99/321/4 96/322/4
f 96/323/6 99/324/6 98/325/6 95/326/6
f 100/327/1 65/328/1 63/313/1 97/329/1
f 100/327/2 101/330/2 67/331/2 65/332/2
f 97/333/6 102/334/6 101/335/6 100/336/6
f 99/337/1 64/320/1 68/338/1 103/339/1
f 68/340/4 70/341/4 104/342/4 103/339/4
f 103/343/6 104/344/6 105/345/6 99/346/6
f 101/347/2 106/348/2 71/349/2 67/350/2
f 70/351/4 72/352/4 107/353/4 104/354/4
f 106/355/2 108/356/2 73/357/2 71/358/2
f 72/359/4 74/360/4 109/361/4 107/362/4
f 77/363/5 111/364/5 110/365/5 76/366/5
f 108/367/2 111/364/2 77/368/2 73/369/2
f 112/370/6 110/371/6 111/372/6 108/373/6
f 76/374/5 110/371/5 113/375/5 78/376/5
f 78/377/5 113/378/5 114/379/5 79/380/5
f 79/381/5 114/382/5 115/383/5 81/384/5
f 74/385/4 81/386/4 115/383/4 109/387/4
f 109/388/6 115/389/6 114/379/6 116/390/6
f 117/391/1 97/312/1 98/325/1 118/392/1
f 117/391/2 119/393/2 102/394/2 97/329/2
f 118/395/6 120/396/6 119/397/6 117/398/6
f 118/395/1 98/316/1 99/321/1 121/399/1
f 99/337/4 105/400/4 122/401/4 121/399/4
f 121/402/6 122/403/6 120/404/6 118/392/6
f 123/405/1 101/330/1 102/394/1 119/406/1
f 123/405/2 124/407/2 106/408/2 101/409/2
f 119/410/6 125/411/6 124/412/6 123/413/6
f 120/414/6 126/415/6 125/416/6 119/406/6
f 122/417/6 127/418/6 126/419/6 120/420/6
f 122/417/1 105/400/1 104/342/1 128/421/1
f 104/422/4 107/423/4 129/424/4 128/421/4
f 128/425/6 129/426/6 127/427/6 122/428/6
f 108/367/5 131/429/5 130/430/5 112/431/5
f 124/432/2 131/429/2 108/433/2 106/434/2
f 125/435/6 130/436/6 131/437/6 124/438/6
f 126/439/6 132/440/6 130/430/6 125/441/6
f 127/442/6 133/443/6 132/444/6 126/445/6
f 116/446/5 133/443/5 134/447/5 109/387/5
f 107/448/4 109/449/4 134/447/4 129/450/4
f 129/451/6 134/452/6 133/453/6 127/454/6
f 110/455/5 136/456/5 135/457/5 113/458/5
f 130/459/2 136/456/2 110/365/2 112/431/2
f 132/460/6 135/461/6 136/462/6 130/463/6
f 113/464/5 135/461/5 137/465/5 114/466/5
f 116/446/4 114/382/4 137/465/4 133/467/4
f 133/468/6 137/469/6 135/457/6 132/470/6
